<?xml version="1.0" encoding="UTF-8"?>
<!-- Generator: Adobe Illustrator 19.0.0, SVG Export Plug-In . SVG Version: 6.00 Build 0)  -->
<svg version="1.1" id="Isolation_Mode" xmlns="http://www.w3.org/2000/svg" xmlns:xlink="http://www.w3.org/1999/xlink" x="0px" y="0px" viewBox="-1327 1379.5 180.1 77.2" style="enable-background:new -1327 1379.5 180.1 77.2;" xml:space="preserve">
<style type="text/css">
	.st0{fill:#0072BC;}
</style>
<title>logo</title>
<path class="st0" d="M-1221.9,1400c-3.2-2.9-7.4-4.4-11.7-4.3c-2.2,0-4.5,0.5-6.5,1.4c-1.5,0.7-3,1.6-4.2,2.7v-3.2h-6.8v40.8h6.8  v-16.2c2.9,2.7,6.7,4.3,10.7,4.3c4.3,0.1,8.4-1.5,11.6-4.3c3-2.6,4.8-6.5,4.7-10.5C-1217.2,1406.7-1218.9,1402.8-1221.9,1400   M-1224.2,1410.7c0.1,2.5-0.9,5-2.8,6.7c-4.1,3.6-10.3,3.5-14.3-0.1c-3.7-3.3-4-8.9-0.7-12.5c0.2-0.2,0.4-0.5,0.7-0.7  c1.9-1.8,4.5-2.7,7.1-2.7c2.7-0.1,5.3,0.8,7.4,2.6C-1225.1,1405.7-1224.1,1408.1-1224.2,1410.7"/>
<path class="st0" d="M-1187,1400c-1.2-1.2-2.7-2.2-4.3-2.9c-2-0.9-4.2-1.4-6.4-1.4c-4.3-0.1-8.4,1.4-11.6,4.3  c-3,2.6-4.7,6.4-4.7,10.5c-0.1,4.1,1.6,8,4.6,10.7c3.2,2.9,7.4,4.5,11.7,4.3c3.9,0,7.7-1.5,10.7-4.2v3.3h6.8v-28h-6.8 M-1187,1410.7  c0.1,2.5-1,5-2.9,6.7c-1.9,1.8-4.4,2.7-7,2.7c-2.7,0.1-5.3-0.8-7.3-2.6c-1.8-1.7-2.8-4.2-2.7-6.7c-0.1-2.5,0.9-5,2.8-6.7  c4.1-3.5,10.2-3.5,14.3,0.1C-1188.1,1405.7-1187,1408.1-1187,1410.7"/>
<path class="st0" d="M-1149.9,1398.7c-2-1.9-4.7-2.9-8.2-2.9c-3.5,0-6.8,1.3-9.5,3.5v-17.6h-6.8v43h6.8v-18.8c2.6-3,5.4-4.5,8.2-4.5  c1.6-0.1,3.2,0.4,4.4,1.4c0.9,0.9,1.4,2.5,1.4,4.7v17.2h6.8v-18.5C-1146.8,1403.4-1147.9,1400.6-1149.9,1398.7"/>
<path class="st0" d="M-1321.5,1437.2l-4.6,2.4c-0.8,0.4-1.1,1.4-0.7,2.2c0.4,0.8,1.4,1.1,2.2,0.7c0.3-0.2,0.6-0.4,0.7-0.7"/>
<path class="st0" d="M-1264.4,1440.8l-2.9-1.5l1.5,2.9c0.3,0.5,0.9,0.7,1.4,0.5c0.5-0.3,0.7-0.9,0.5-1.4  C-1264,1441-1264.2,1440.9-1264.4,1440.8"/>
<path class="st0" d="M-1318,1388.6l-3.9-7.5c-0.7-1.3-2.3-1.9-3.6-1.2c-1.3,0.7-1.9,2.3-1.2,3.6c0.2,0.5,0.6,0.9,1.1,1.1l0,0"/>
<path class="st0" d="M-1264.2,1379.5c-0.2,0-0.4,0.1-0.5,0.3l-0.9,1.7l1.7-0.9c0.3-0.2,0.4-0.5,0.2-0.8  C-1263.8,1379.7-1264,1379.5-1264.2,1379.5"/>
<path class="st0" d="M-1263.8,1403.6c0-13.3-10.8-24.1-24.1-24.1c-7.3,0-13.5,5.2-14.8,12.4c-1.9-1.5-4.2-2.2-6.6-2.2  c-9.8,0-17.8,8.2-17.8,18.3c0,14.1,9.5,25.9,22.2,29c1,0.3,2,0.7,3,1.1c0.5,0.3,0.7,0.9,0.5,1.4c0,0.1-0.1,0.2-0.1,0.2l0,0  c-0.3,0.3-0.4,0.7-0.4,1.2c0,1,0.7,1.7,1.7,1.8c0,0,0,0,0,0h0.2C-1279.5,1441.1-1263.8,1424.1-1263.8,1403.6 M-1288.1,1430.9  c-7.2-9.8-11-21.7-11-33.8l0,0c-0.1-6.1,4.8-11.2,10.9-11.3c9.7,0,17.5,8.1,17.5,18.1C-1270.5,1415.5-1277.4,1426.1-1288.1,1430.9  L-1288.1,1430.9L-1288.1,1430.9z"/>
<path class="st0" d="M-1248.1,1451.4c-0.5,0.3-1.1,0.4-1.7,0.3h-0.6v3h-0.8v-6.6h1.4c0.6-0.1,1.1,0.1,1.7,0.3c0.8,0.7,0.9,2,0.2,2.8  C-1248,1451.3-1248,1451.4-1248.1,1451.4 M-1250,1448.8h-0.4v2.2h0.4c1.1,0,1.7-0.1,1.7-1.1S-1248.8,1448.8-1250,1448.8"/>
<path class="st0" d="M-1243.5,1454.2c-0.4,0.4-1,0.7-1.6,0.7c-0.6,0-1.2-0.2-1.6-0.7c-0.9-0.9-0.9-2.3,0-3.1c0,0,0,0,0,0  c0.4-0.4,1-0.6,1.6-0.6c0.6,0,1.2,0.2,1.6,0.6C-1242.7,1451.9-1242.7,1453.3-1243.5,1454.2  C-1243.5,1454.2-1243.5,1454.2-1243.5,1454.2 M-1245.1,1451.1c-0.9,0-1.6,0.6-1.6,1.5c0,0.9,0.6,1.6,1.5,1.6c0.9,0,1.6-0.6,1.6-1.5  c0,0,0-0.1,0-0.1C-1243.6,1451.8-1244.3,1451.1-1245.1,1451.1C-1245.1,1451.1-1245.1,1451.1-1245.1,1451.1"/>
<polyline class="st0" points="-1241.8,1454.7 -1241,1454.7 -1241,1447.7 -1241.8,1447.7 "/>
<path class="st0" d="M-1238.4,1454.8c-0.7,0.1-1.3-0.3-1.6-0.9l0.6-0.4c0.2,0.4,0.6,0.6,1,0.7c0.4,0.1,0.7-0.2,0.8-0.6  c0,0,0,0,0-0.1c0-0.3-0.3-0.6-0.6-0.6c-1-0.3-1.6-0.5-1.6-1.3c0-0.7,0.6-1.3,1.4-1.2c0,0,0.1,0,0.1,0c0.6-0.1,1.2,0.3,1.5,0.8  l-0.6,0.3c-0.2-0.4-0.5-0.6-0.9-0.6c-0.3,0-0.7,0.2-0.7,0.6c0,0,0,0,0,0.1c0,0.4,0.4,0.5,1.1,0.7c0.7,0.2,1.2,0.6,1.2,1.2  C-1236.9,1454.3-1237.6,1454.9-1238.4,1454.8C-1238.3,1454.8-1238.4,1454.8-1238.4,1454.8"/>
<polyline class="st0" points="-1233,1454.7 -1235.1,1452.5 -1235.1,1454.7 -1235.8,1454.7 -1235.8,1447.7 -1235.1,1447.7   -1235.1,1452.4 -1233.1,1450.5 -1232.2,1450.5 -1234.2,1452.4 -1232,1454.7 "/>
<path class="st0" d="M-1228.2,1454.7v-0.7c-0.3,0.6-0.9,0.9-1.5,0.9c-1.1,0-2-0.9-2-2c0-0.1,0-0.2,0-0.2c-0.1-1.1,0.7-2.1,1.8-2.2  c0.1,0,0.1,0,0.2,0c0.6,0,1.2,0.3,1.5,0.9v-0.8h0.7v4.1 M-1229.5,1451.1c-0.7,0-1.3,0.5-1.4,1.2c0,0.1,0,0.2,0,0.3  c-0.1,0.7,0.4,1.4,1.1,1.5c0.1,0,0.2,0,0.3,0c0.7,0,1.3-0.5,1.4-1.2c0-0.1,0-0.2,0-0.2c0.1-0.8-0.5-1.4-1.2-1.5  C-1229.4,1451.1-1229.4,1451.1-1229.5,1451.1"/>
<path class="st0" d="M-1219.1,1454.7l-0.8-2h-2.6l-0.9,2h-0.8l3-6.8l3,6.8 M-1221.2,1449.6l-1,2.4h2.1L-1221.2,1449.6z"/>
<polyline class="st0" points="-1214.8,1454.7 -1216.9,1452.5 -1216.9,1454.7 -1217.6,1454.7 -1217.6,1447.7 -1216.9,1447.7   -1216.9,1452.4 -1214.9,1450.5 -1214,1450.5 -1216,1452.4 -1213.8,1454.7 "/>
<path class="st0" d="M-1211.3,1454.8c-1.1,0.1-2-0.8-2.1-1.9c0-0.1,0-0.2,0-0.3c-0.1-1.2,0.8-2.2,2-2.2c0.1,0,0.1,0,0.2,0  c0.4,0,0.9,0.1,1.3,0.3v0.8c-0.3-0.2-0.7-0.4-1.1-0.4c-0.8,0.1-1.5,0.8-1.4,1.6c0,0.8,0.6,1.4,1.4,1.4c0.5,0,0.9-0.2,1.3-0.5v0.8  C-1210.3,1454.7-1210.8,1454.8-1211.3,1454.8"/>
<path class="st0" d="M-1208.6,1449.1c-0.3,0-0.5-0.2-0.5-0.5l0,0c0-0.3,0.2-0.5,0.5-0.5l0,0c0.3,0,0.5,0.2,0.5,0.5  C-1208.1,1448.9-1208.3,1449.1-1208.6,1449.1L-1208.6,1449.1 M-1208.9,1450.6h0.7v6.1h-0.7V1450.6L-1208.9,1450.6z"/>
<path class="st0" d="M-1203.6,1454.7v-0.7c-0.3,0.6-0.9,0.9-1.5,0.9c-1.1,0-2-0.9-2-2c0-0.1,0-0.2,0-0.2c-0.1-1.1,0.7-2.1,1.8-2.2  c0.1,0,0.1,0,0.2,0c0.6,0,1.2,0.3,1.5,0.9v-0.8h0.7v4.1 M-1204.9,1451.1c-0.7,0-1.3,0.5-1.4,1.2c0,0.1,0,0.2,0,0.3  c-0.1,0.7,0.4,1.4,1.1,1.5c0.1,0,0.2,0,0.3,0c0.7,0,1.3-0.5,1.4-1.2c0-0.1,0-0.2,0-0.2c0.1-0.8-0.5-1.4-1.2-1.5  C-1204.8,1451.1-1204.9,1451.1-1204.9,1451.1"/>
<polyline class="st0" points="-1194.4,1454.7 -1194.4,1451.4 -1197.9,1451.4 -1197.9,1454.7 -1198.7,1454.7 -1198.7,1448.1   -1197.9,1448.1 -1197.9,1450.6 -1194.4,1450.6 -1194.4,1448.1 -1193.6,1448.1 -1193.6,1454.7 "/>
<path class="st0" d="M-1190.3,1454.8c-0.9,0.1-1.8-0.5-1.9-1.5c0-0.1,0-0.3,0-0.4v-2.4h0.7v2c0,1.1,0.2,1.6,1.1,1.6  c0.9,0,1.1-0.5,1.1-1.6v-2h0.7v2.4c0.1,0.9-0.5,1.8-1.5,1.9C-1190.1,1454.8-1190.2,1454.8-1190.3,1454.8"/>
<path class="st0" d="M-1181.4,1454.7v-2.4c0.1-0.5-0.2-1.1-0.7-1.2c-0.1,0-0.2,0-0.3,0c-0.4,0-0.7,0.2-0.9,0.4  c-0.2,0.3-0.3,0.7-0.2,1.1v2.1h-0.7v-2.4c0.1-0.5-0.2-1.1-0.7-1.2c-0.1,0-0.2,0-0.3,0c-0.4,0-0.7,0.2-0.9,0.4  c-0.2,0.3-0.3,0.7-0.2,1.1v2.1h-0.7v-4.1h0.7v0.6c0.3-0.5,0.8-0.8,1.4-0.8c0.6,0,1.1,0.3,1.4,0.8c0.3-0.5,0.9-0.9,1.5-0.8  c0.7-0.1,1.4,0.5,1.5,1.2c0,0.1,0,0.2,0,0.3v2.8"/>
<path class="st0" d="M-1176.2,1454.7v-0.7c-0.3,0.6-0.9,0.9-1.5,0.9c-1.1,0-2-0.9-2-2c0-0.1,0-0.2,0-0.2c-0.1-1.1,0.7-2.1,1.8-2.2  c0.1,0,0.1,0,0.2,0c0.6,0,1.2,0.3,1.5,0.9v-0.8h0.7v4.1 M-1177.5,1451.1c-0.7,0-1.3,0.5-1.4,1.2c0,0.1,0,0.2,0,0.3  c-0.1,0.7,0.4,1.4,1.1,1.5c0.1,0,0.2,0,0.3,0c0.7,0,1.3-0.5,1.4-1.2c0-0.1,0-0.2,0-0.2c0.1-0.8-0.5-1.4-1.2-1.5  C-1177.4,1451.1-1177.5,1451.1-1177.5,1451.1"/>
<path class="st0" d="M-1171.1,1454.7v-2.4c0.1-0.5-0.2-1.1-0.7-1.2c-0.1,0-0.2,0-0.3,0c-0.4,0-0.8,0.1-1,0.4  c-0.2,0.3-0.3,0.7-0.2,1.1v2.1h-0.7v-4.1h0.7v0.6c0.3-0.5,0.9-0.8,1.5-0.8c0.8-0.1,1.4,0.5,1.5,1.2c0,0.1,0,0.2,0,0.3v2.8"/>
<path class="st0" d="M-1168.6,1449.1c-0.3,0-0.5-0.2-0.5-0.5c0,0,0,0,0,0c0-0.3,0.2-0.5,0.5-0.5c0,0,0,0,0,0c0.3,0,0.5,0.2,0.5,0.5  C-1168.1,1448.9-1168.3,1449.1-1168.6,1449.1L-1168.6,1449.1 M-1168.9,1450.6h0.7v4.1h-0.7V1450.6L-1168.9,1450.6z"/>
<polyline class="st0" points="-1165.9,1451.1 -1165.9,1454.7 -1166.6,1454.7 -1166.6,1451.1 -1167.4,1451.1 -1167.4,1450.5   -1166.6,1450.5 -1166.6,1448.9 -1165.9,1448.9 -1165.9,1450.5 -1165.2,1450.5 -1165.2,1451.1 "/>
<path class="st0" d="M-1161.2,1454.7v-0.7c-0.3,0.6-0.9,0.9-1.5,0.9c-1.1,0-2-0.9-2-2c0-0.1,0-0.2,0-0.2c-0.1-1.1,0.7-2.1,1.8-2.2  c0.1,0,0.1,0,0.2,0c0.6,0,1.2,0.3,1.5,0.9v-0.8h0.7v4.1 M-1162.6,1451.1c-0.7,0-1.3,0.5-1.4,1.2c0,0.1,0,0.2,0,0.3  c-0.1,0.7,0.4,1.4,1.1,1.5c0.1,0,0.2,0,0.3,0c0.7,0,1.3-0.5,1.4-1.2c0-0.1,0-0.2,0-0.2c0.1-0.8-0.5-1.4-1.2-1.5  C-1162.5,1451.1-1162.5,1451.1-1162.6,1451.1"/>
<path class="st0" d="M-1156.9,1451.1c-0.1-0.1-0.3-0.1-0.4-0.1c-0.7,0-1.1,0.5-1.1,1.6v2h-0.7v-4.1h0.6v0.9c0.2-0.6,0.8-1,1.4-1  c0.2,0,0.3,0,0.5,0.1"/>
<path class="st0" d="M-1152.9,1454.7v-2.4c0.1-0.5-0.2-1.1-0.7-1.2c-0.1,0-0.2,0-0.3,0c-0.4,0-0.8,0.1-1,0.4  c-0.2,0.3-0.3,0.7-0.2,1.1v2.1h-0.7v-4.1h0.7v0.6c0.3-0.5,0.9-0.8,1.5-0.8c0.8-0.1,1.4,0.5,1.5,1.2c0,0.1,0,0.2,0,0.3v2.8"/>
<path class="st0" d="M-1147.6,1454.7v-0.7c-0.3,0.6-0.9,0.9-1.5,0.9c-1.1,0-2-0.9-2-2c0-0.1,0-0.2,0-0.2c-0.1-1.1,0.7-2.1,1.8-2.2  c0.1,0,0.1,0,0.2,0c0.6,0,1.2,0.3,1.5,0.9v-0.8h0.7v4.1 M-1149,1451.1c-0.7,0-1.3,0.5-1.4,1.2c0,0.1,0,0.2,0,0.3  c-0.1,0.7,0.4,1.4,1.1,1.5c0.1,0,0.2,0,0.3,0c0.7,0,1.3-0.5,1.4-1.2c0-0.1,0-0.2,0-0.2c0.1-0.8-0.5-1.4-1.2-1.5  C-1148.9,1451.1-1148.9,1451.1-1149,1451.1"/>
</svg>